<mxfile host="app.diagrams.net" agent="Mozilla/5.0 (Windows NT 10.0; Win64; x64) AppleWebKit/537.36 (KHTML, like Gecko) Chrome/134.0.0.0 Safari/537.36" version="26.2.9">
  <diagram name="Page-1" id="Zbwgbh7fM2v3G4EBof84">
    <mxGraphModel dx="1667" dy="1912" grid="1" gridSize="10" guides="1" tooltips="1" connect="1" arrows="1" fold="1" page="1" pageScale="1" pageWidth="827" pageHeight="1169" math="0" shadow="0">
      <root>
        <mxCell id="0" />
        <mxCell id="1" parent="0" />
        <mxCell id="u0EGI90GSaUVnPFxNuiq-7" value="član" style="whiteSpace=wrap;html=1;align=center;" vertex="1" parent="1">
          <mxGeometry x="190" y="40" width="100" height="40" as="geometry" />
        </mxCell>
        <mxCell id="u0EGI90GSaUVnPFxNuiq-8" value="ime" style="ellipse;whiteSpace=wrap;html=1;align=center;" vertex="1" parent="1">
          <mxGeometry x="50" y="90" width="100" height="40" as="geometry" />
        </mxCell>
        <mxCell id="u0EGI90GSaUVnPFxNuiq-9" value="id člana" style="ellipse;whiteSpace=wrap;html=1;align=center;fontStyle=4;" vertex="1" parent="1">
          <mxGeometry x="10" y="30" width="100" height="40" as="geometry" />
        </mxCell>
        <mxCell id="u0EGI90GSaUVnPFxNuiq-10" value="priimek" style="ellipse;whiteSpace=wrap;html=1;align=center;" vertex="1" parent="1">
          <mxGeometry x="130" y="140" width="100" height="40" as="geometry" />
        </mxCell>
        <mxCell id="u0EGI90GSaUVnPFxNuiq-11" value="telefon" style="ellipse;whiteSpace=wrap;html=1;align=center;" vertex="1" parent="1">
          <mxGeometry x="314" y="105" width="100" height="40" as="geometry" />
        </mxCell>
        <mxCell id="u0EGI90GSaUVnPFxNuiq-12" value="email" style="ellipse;whiteSpace=wrap;html=1;align=center;" vertex="1" parent="1">
          <mxGeometry x="240" y="150" width="100" height="40" as="geometry" />
        </mxCell>
        <mxCell id="u0EGI90GSaUVnPFxNuiq-14" value="status" style="ellipse;whiteSpace=wrap;html=1;align=center;" vertex="1" parent="1">
          <mxGeometry x="160" y="-80" width="100" height="40" as="geometry" />
        </mxCell>
        <mxCell id="u0EGI90GSaUVnPFxNuiq-15" value="geslo" style="ellipse;whiteSpace=wrap;html=1;align=center;" vertex="1" parent="1">
          <mxGeometry x="80" y="-30" width="100" height="40" as="geometry" />
        </mxCell>
        <mxCell id="u0EGI90GSaUVnPFxNuiq-16" value="knjiga" style="whiteSpace=wrap;html=1;align=center;" vertex="1" parent="1">
          <mxGeometry x="650" y="-200" width="100" height="40" as="geometry" />
        </mxCell>
        <mxCell id="u0EGI90GSaUVnPFxNuiq-17" value="id knjige" style="ellipse;whiteSpace=wrap;html=1;align=center;fontStyle=4;" vertex="1" parent="1">
          <mxGeometry x="775" y="-275.68" width="100" height="40" as="geometry" />
        </mxCell>
        <mxCell id="u0EGI90GSaUVnPFxNuiq-18" value="naslov" style="ellipse;whiteSpace=wrap;html=1;align=center;" vertex="1" parent="1">
          <mxGeometry x="720" y="-100" width="100" height="40" as="geometry" />
        </mxCell>
        <mxCell id="u0EGI90GSaUVnPFxNuiq-22" value="razpoložljivost" style="ellipse;whiteSpace=wrap;html=1;align=center;" vertex="1" parent="1">
          <mxGeometry x="850" y="-240" width="100" height="40" as="geometry" />
        </mxCell>
        <mxCell id="u0EGI90GSaUVnPFxNuiq-25" value="ocena" style="whiteSpace=wrap;html=1;align=center;" vertex="1" parent="1">
          <mxGeometry x="775" y="170" width="100" height="40" as="geometry" />
        </mxCell>
        <mxCell id="u0EGI90GSaUVnPFxNuiq-26" value="id ocene" style="ellipse;whiteSpace=wrap;html=1;align=center;fontStyle=4;" vertex="1" parent="1">
          <mxGeometry x="655" y="250" width="100" height="40" as="geometry" />
        </mxCell>
        <mxCell id="u0EGI90GSaUVnPFxNuiq-27" value="ocena" style="ellipse;whiteSpace=wrap;html=1;align=center;" vertex="1" parent="1">
          <mxGeometry x="765" y="280" width="100" height="40" as="geometry" />
        </mxCell>
        <mxCell id="u0EGI90GSaUVnPFxNuiq-28" value="datum" style="ellipse;whiteSpace=wrap;html=1;align=center;" vertex="1" parent="1">
          <mxGeometry x="902" y="270" width="100" height="40" as="geometry" />
        </mxCell>
        <mxCell id="u0EGI90GSaUVnPFxNuiq-29" value="komentar" style="ellipse;whiteSpace=wrap;html=1;align=center;" vertex="1" parent="1">
          <mxGeometry x="925" y="190" width="100" height="40" as="geometry" />
        </mxCell>
        <mxCell id="u0EGI90GSaUVnPFxNuiq-34" value="datum rezervacije" style="ellipse;whiteSpace=wrap;html=1;align=center;" vertex="1" parent="1">
          <mxGeometry x="424" y="-202.16" width="100" height="40" as="geometry" />
        </mxCell>
        <mxCell id="u0EGI90GSaUVnPFxNuiq-35" value="bralno srečanje" style="whiteSpace=wrap;html=1;align=center;" vertex="1" parent="1">
          <mxGeometry x="640" y="-530" width="100" height="40" as="geometry" />
        </mxCell>
        <mxCell id="u0EGI90GSaUVnPFxNuiq-41" value="" style="endArrow=none;html=1;rounded=0;exitX=0;exitY=1;exitDx=0;exitDy=0;entryX=1;entryY=0.25;entryDx=0;entryDy=0;" edge="1" parent="1" source="u0EGI90GSaUVnPFxNuiq-22" target="u0EGI90GSaUVnPFxNuiq-16">
          <mxGeometry relative="1" as="geometry">
            <mxPoint x="330" y="-150" as="sourcePoint" />
            <mxPoint x="490" y="-150" as="targetPoint" />
          </mxGeometry>
        </mxCell>
        <mxCell id="u0EGI90GSaUVnPFxNuiq-42" value="" style="endArrow=none;html=1;rounded=0;exitX=0;exitY=1;exitDx=0;exitDy=0;" edge="1" parent="1" source="u0EGI90GSaUVnPFxNuiq-17">
          <mxGeometry relative="1" as="geometry">
            <mxPoint x="320" y="-150" as="sourcePoint" />
            <mxPoint x="730" y="-200" as="targetPoint" />
          </mxGeometry>
        </mxCell>
        <mxCell id="u0EGI90GSaUVnPFxNuiq-45" value="" style="endArrow=none;html=1;rounded=0;entryX=0;entryY=0;entryDx=0;entryDy=0;exitX=0.5;exitY=1;exitDx=0;exitDy=0;" edge="1" parent="1" source="u0EGI90GSaUVnPFxNuiq-16" target="u0EGI90GSaUVnPFxNuiq-18">
          <mxGeometry relative="1" as="geometry">
            <mxPoint x="330" y="-150" as="sourcePoint" />
            <mxPoint x="490" y="-150" as="targetPoint" />
          </mxGeometry>
        </mxCell>
        <mxCell id="u0EGI90GSaUVnPFxNuiq-46" value="izposoja" style="shape=rhombus;perimeter=rhombusPerimeter;whiteSpace=wrap;html=1;align=center;" vertex="1" parent="1">
          <mxGeometry x="504" y="-40" width="120" height="60" as="geometry" />
        </mxCell>
        <mxCell id="u0EGI90GSaUVnPFxNuiq-47" value="datum izposoje" style="ellipse;whiteSpace=wrap;html=1;align=center;" vertex="1" parent="1">
          <mxGeometry x="384" y="-110" width="100" height="40" as="geometry" />
        </mxCell>
        <mxCell id="u0EGI90GSaUVnPFxNuiq-48" value="rok vračila knjige" style="ellipse;whiteSpace=wrap;html=1;align=center;" vertex="1" parent="1">
          <mxGeometry x="524" y="-140" width="100" height="40" as="geometry" />
        </mxCell>
        <mxCell id="u0EGI90GSaUVnPFxNuiq-50" value="" style="endArrow=none;html=1;rounded=0;exitX=0.79;exitY=0.925;exitDx=0;exitDy=0;exitPerimeter=0;" edge="1" parent="1" source="u0EGI90GSaUVnPFxNuiq-47" target="u0EGI90GSaUVnPFxNuiq-46">
          <mxGeometry relative="1" as="geometry">
            <mxPoint x="474" y="-80" as="sourcePoint" />
            <mxPoint x="634" y="-80" as="targetPoint" />
          </mxGeometry>
        </mxCell>
        <mxCell id="u0EGI90GSaUVnPFxNuiq-51" value="" style="endArrow=none;html=1;rounded=0;entryX=0.5;entryY=1;entryDx=0;entryDy=0;" edge="1" parent="1" source="u0EGI90GSaUVnPFxNuiq-46" target="u0EGI90GSaUVnPFxNuiq-48">
          <mxGeometry relative="1" as="geometry">
            <mxPoint x="354" y="-90" as="sourcePoint" />
            <mxPoint x="514" y="-90" as="targetPoint" />
          </mxGeometry>
        </mxCell>
        <mxCell id="u0EGI90GSaUVnPFxNuiq-57" value="" style="endArrow=none;html=1;rounded=0;dashed=1;dashPattern=1 2;exitX=1;exitY=0.25;exitDx=0;exitDy=0;entryX=0.142;entryY=0.683;entryDx=0;entryDy=0;entryPerimeter=0;" edge="1" parent="1" source="u0EGI90GSaUVnPFxNuiq-7" target="u0EGI90GSaUVnPFxNuiq-46">
          <mxGeometry relative="1" as="geometry">
            <mxPoint x="330" y="-150" as="sourcePoint" />
            <mxPoint x="490" y="-150" as="targetPoint" />
          </mxGeometry>
        </mxCell>
        <mxCell id="u0EGI90GSaUVnPFxNuiq-58" value="N" style="resizable=0;html=1;whiteSpace=wrap;align=right;verticalAlign=bottom;" connectable="0" vertex="1" parent="u0EGI90GSaUVnPFxNuiq-57">
          <mxGeometry x="1" relative="1" as="geometry">
            <mxPoint x="-7" y="17" as="offset" />
          </mxGeometry>
        </mxCell>
        <mxCell id="u0EGI90GSaUVnPFxNuiq-59" value="" style="endArrow=none;html=1;rounded=0;dashed=1;dashPattern=1 2;exitX=0.25;exitY=1;exitDx=0;exitDy=0;entryX=1;entryY=0;entryDx=0;entryDy=0;" edge="1" parent="1" source="u0EGI90GSaUVnPFxNuiq-16" target="u0EGI90GSaUVnPFxNuiq-46">
          <mxGeometry relative="1" as="geometry">
            <mxPoint x="690" y="-103" as="sourcePoint" />
            <mxPoint x="514" y="-90" as="targetPoint" />
          </mxGeometry>
        </mxCell>
        <mxCell id="u0EGI90GSaUVnPFxNuiq-60" value="N" style="resizable=0;html=1;whiteSpace=wrap;align=right;verticalAlign=bottom;" connectable="0" vertex="1" parent="u0EGI90GSaUVnPFxNuiq-59">
          <mxGeometry x="1" relative="1" as="geometry">
            <mxPoint x="22" y="5" as="offset" />
          </mxGeometry>
        </mxCell>
        <mxCell id="u0EGI90GSaUVnPFxNuiq-61" value="" style="endArrow=none;html=1;rounded=0;entryX=0.37;entryY=1.05;entryDx=0;entryDy=0;entryPerimeter=0;" edge="1" parent="1" source="u0EGI90GSaUVnPFxNuiq-7" target="u0EGI90GSaUVnPFxNuiq-14">
          <mxGeometry relative="1" as="geometry">
            <mxPoint x="280" y="-120" as="sourcePoint" />
            <mxPoint x="440" y="-120" as="targetPoint" />
          </mxGeometry>
        </mxCell>
        <mxCell id="u0EGI90GSaUVnPFxNuiq-62" value="" style="endArrow=none;html=1;rounded=0;entryX=0;entryY=0;entryDx=0;entryDy=0;" edge="1" parent="1" target="u0EGI90GSaUVnPFxNuiq-7">
          <mxGeometry relative="1" as="geometry">
            <mxPoint x="140" y="10" as="sourcePoint" />
            <mxPoint x="300" y="10" as="targetPoint" />
          </mxGeometry>
        </mxCell>
        <mxCell id="u0EGI90GSaUVnPFxNuiq-63" value="" style="endArrow=none;html=1;rounded=0;exitX=1;exitY=0.5;exitDx=0;exitDy=0;" edge="1" parent="1" source="u0EGI90GSaUVnPFxNuiq-9" target="u0EGI90GSaUVnPFxNuiq-7">
          <mxGeometry relative="1" as="geometry">
            <mxPoint x="280" y="-120" as="sourcePoint" />
            <mxPoint x="440" y="-120" as="targetPoint" />
          </mxGeometry>
        </mxCell>
        <mxCell id="u0EGI90GSaUVnPFxNuiq-64" value="" style="endArrow=none;html=1;rounded=0;" edge="1" parent="1" source="u0EGI90GSaUVnPFxNuiq-8">
          <mxGeometry relative="1" as="geometry">
            <mxPoint x="40" y="80" as="sourcePoint" />
            <mxPoint x="200" y="80" as="targetPoint" />
          </mxGeometry>
        </mxCell>
        <mxCell id="u0EGI90GSaUVnPFxNuiq-65" value="" style="endArrow=none;html=1;rounded=0;" edge="1" parent="1">
          <mxGeometry relative="1" as="geometry">
            <mxPoint x="230" y="80" as="sourcePoint" />
            <mxPoint x="210" y="140" as="targetPoint" />
          </mxGeometry>
        </mxCell>
        <mxCell id="u0EGI90GSaUVnPFxNuiq-66" value="" style="endArrow=none;html=1;rounded=0;" edge="1" parent="1" target="u0EGI90GSaUVnPFxNuiq-12">
          <mxGeometry relative="1" as="geometry">
            <mxPoint x="270" y="80" as="sourcePoint" />
            <mxPoint x="430" y="80" as="targetPoint" />
          </mxGeometry>
        </mxCell>
        <mxCell id="u0EGI90GSaUVnPFxNuiq-67" value="" style="endArrow=none;html=1;rounded=0;exitX=1;exitY=0.75;exitDx=0;exitDy=0;" edge="1" parent="1" source="u0EGI90GSaUVnPFxNuiq-7" target="u0EGI90GSaUVnPFxNuiq-11">
          <mxGeometry relative="1" as="geometry">
            <mxPoint x="280" y="-120" as="sourcePoint" />
            <mxPoint x="440" y="-120" as="targetPoint" />
          </mxGeometry>
        </mxCell>
        <mxCell id="u0EGI90GSaUVnPFxNuiq-68" value="rezervacija" style="shape=rhombus;perimeter=rhombusPerimeter;whiteSpace=wrap;html=1;align=center;" vertex="1" parent="1">
          <mxGeometry x="364" y="-277.84000000000003" width="120" height="60" as="geometry" />
        </mxCell>
        <mxCell id="u0EGI90GSaUVnPFxNuiq-69" value="" style="endArrow=none;html=1;rounded=0;dashed=1;dashPattern=1 2;entryX=0;entryY=1;entryDx=0;entryDy=0;" edge="1" parent="1" source="u0EGI90GSaUVnPFxNuiq-7" target="u0EGI90GSaUVnPFxNuiq-68">
          <mxGeometry relative="1" as="geometry">
            <mxPoint x="330" y="-150" as="sourcePoint" />
            <mxPoint x="490" y="-150" as="targetPoint" />
          </mxGeometry>
        </mxCell>
        <mxCell id="u0EGI90GSaUVnPFxNuiq-70" value="N" style="resizable=0;html=1;whiteSpace=wrap;align=right;verticalAlign=bottom;" connectable="0" vertex="1" parent="u0EGI90GSaUVnPFxNuiq-69">
          <mxGeometry x="1" relative="1" as="geometry">
            <mxPoint y="16" as="offset" />
          </mxGeometry>
        </mxCell>
        <mxCell id="u0EGI90GSaUVnPFxNuiq-71" value="" style="endArrow=none;html=1;rounded=0;dashed=1;dashPattern=1 2;entryX=0.925;entryY=0.561;entryDx=0;entryDy=0;exitX=0;exitY=0;exitDx=0;exitDy=0;entryPerimeter=0;" edge="1" parent="1" source="u0EGI90GSaUVnPFxNuiq-16" target="u0EGI90GSaUVnPFxNuiq-68">
          <mxGeometry relative="1" as="geometry">
            <mxPoint x="330" y="-150" as="sourcePoint" />
            <mxPoint x="490" y="-150" as="targetPoint" />
          </mxGeometry>
        </mxCell>
        <mxCell id="u0EGI90GSaUVnPFxNuiq-72" value="N" style="resizable=0;html=1;whiteSpace=wrap;align=right;verticalAlign=bottom;" connectable="0" vertex="1" parent="u0EGI90GSaUVnPFxNuiq-71">
          <mxGeometry x="1" relative="1" as="geometry">
            <mxPoint x="18" y="8" as="offset" />
          </mxGeometry>
        </mxCell>
        <mxCell id="u0EGI90GSaUVnPFxNuiq-73" value="" style="endArrow=none;html=1;rounded=0;entryX=0.633;entryY=0.797;entryDx=0;entryDy=0;entryPerimeter=0;" edge="1" parent="1" target="u0EGI90GSaUVnPFxNuiq-68">
          <mxGeometry relative="1" as="geometry">
            <mxPoint x="460" y="-202.16" as="sourcePoint" />
            <mxPoint x="440" y="-222.16" as="targetPoint" />
          </mxGeometry>
        </mxCell>
        <mxCell id="u0EGI90GSaUVnPFxNuiq-74" value="ima" style="shape=rhombus;perimeter=rhombusPerimeter;whiteSpace=wrap;html=1;align=center;" vertex="1" parent="1">
          <mxGeometry x="660" y="20" width="100" height="50" as="geometry" />
        </mxCell>
        <mxCell id="u0EGI90GSaUVnPFxNuiq-76" value="" style="endArrow=none;html=1;rounded=0;exitX=0.35;exitY=1.025;exitDx=0;exitDy=0;exitPerimeter=0;entryX=0.5;entryY=0;entryDx=0;entryDy=0;" edge="1" parent="1" source="u0EGI90GSaUVnPFxNuiq-16" target="u0EGI90GSaUVnPFxNuiq-74">
          <mxGeometry relative="1" as="geometry">
            <mxPoint x="330" y="90" as="sourcePoint" />
            <mxPoint x="490" y="90" as="targetPoint" />
          </mxGeometry>
        </mxCell>
        <mxCell id="u0EGI90GSaUVnPFxNuiq-77" value="N" style="resizable=0;html=1;whiteSpace=wrap;align=right;verticalAlign=bottom;" connectable="0" vertex="1" parent="u0EGI90GSaUVnPFxNuiq-76">
          <mxGeometry x="1" relative="1" as="geometry" />
        </mxCell>
        <mxCell id="u0EGI90GSaUVnPFxNuiq-78" value="poda" style="shape=rhombus;perimeter=rhombusPerimeter;whiteSpace=wrap;html=1;align=center;" vertex="1" parent="1">
          <mxGeometry x="480" y="100" width="100" height="50" as="geometry" />
        </mxCell>
        <mxCell id="u0EGI90GSaUVnPFxNuiq-79" value="" style="endArrow=none;html=1;rounded=0;exitX=1;exitY=0.5;exitDx=0;exitDy=0;" edge="1" parent="1" source="u0EGI90GSaUVnPFxNuiq-7" target="u0EGI90GSaUVnPFxNuiq-78">
          <mxGeometry relative="1" as="geometry">
            <mxPoint x="330" y="90" as="sourcePoint" />
            <mxPoint x="490" y="90" as="targetPoint" />
          </mxGeometry>
        </mxCell>
        <mxCell id="u0EGI90GSaUVnPFxNuiq-80" value="N" style="resizable=0;html=1;whiteSpace=wrap;align=right;verticalAlign=bottom;" connectable="0" vertex="1" parent="u0EGI90GSaUVnPFxNuiq-79">
          <mxGeometry x="1" relative="1" as="geometry" />
        </mxCell>
        <mxCell id="u0EGI90GSaUVnPFxNuiq-82" value="" style="endArrow=none;html=1;rounded=0;exitX=0;exitY=0.5;exitDx=0;exitDy=0;entryX=0.94;entryY=0.46;entryDx=0;entryDy=0;entryPerimeter=0;" edge="1" parent="1" source="u0EGI90GSaUVnPFxNuiq-25" target="u0EGI90GSaUVnPFxNuiq-78">
          <mxGeometry relative="1" as="geometry">
            <mxPoint x="405" y="140" as="sourcePoint" />
            <mxPoint x="655" y="175" as="targetPoint" />
          </mxGeometry>
        </mxCell>
        <mxCell id="u0EGI90GSaUVnPFxNuiq-83" value="1" style="resizable=0;html=1;whiteSpace=wrap;align=right;verticalAlign=bottom;" connectable="0" vertex="1" parent="u0EGI90GSaUVnPFxNuiq-82">
          <mxGeometry x="1" relative="1" as="geometry" />
        </mxCell>
        <mxCell id="u0EGI90GSaUVnPFxNuiq-84" value="" style="endArrow=none;html=1;rounded=0;entryX=1;entryY=1;entryDx=0;entryDy=0;exitX=0.25;exitY=0;exitDx=0;exitDy=0;" edge="1" parent="1" source="u0EGI90GSaUVnPFxNuiq-25" target="u0EGI90GSaUVnPFxNuiq-74">
          <mxGeometry relative="1" as="geometry">
            <mxPoint x="405" y="140" as="sourcePoint" />
            <mxPoint x="785" y="120" as="targetPoint" />
          </mxGeometry>
        </mxCell>
        <mxCell id="u0EGI90GSaUVnPFxNuiq-85" value="1" style="resizable=0;html=1;whiteSpace=wrap;align=right;verticalAlign=bottom;" connectable="0" vertex="1" parent="u0EGI90GSaUVnPFxNuiq-84">
          <mxGeometry x="1" relative="1" as="geometry">
            <mxPoint x="18" y="12" as="offset" />
          </mxGeometry>
        </mxCell>
        <mxCell id="u0EGI90GSaUVnPFxNuiq-87" value="" style="endArrow=none;html=1;rounded=0;exitX=0.74;exitY=0.075;exitDx=0;exitDy=0;exitPerimeter=0;entryX=0;entryY=1;entryDx=0;entryDy=0;" edge="1" parent="1" source="u0EGI90GSaUVnPFxNuiq-26" target="u0EGI90GSaUVnPFxNuiq-25">
          <mxGeometry relative="1" as="geometry">
            <mxPoint x="405" y="140" as="sourcePoint" />
            <mxPoint x="565" y="140" as="targetPoint" />
          </mxGeometry>
        </mxCell>
        <mxCell id="u0EGI90GSaUVnPFxNuiq-88" value="" style="endArrow=none;html=1;rounded=0;exitX=0.5;exitY=0;exitDx=0;exitDy=0;entryX=0.5;entryY=1;entryDx=0;entryDy=0;" edge="1" parent="1" source="u0EGI90GSaUVnPFxNuiq-27" target="u0EGI90GSaUVnPFxNuiq-25">
          <mxGeometry relative="1" as="geometry">
            <mxPoint x="405" y="140" as="sourcePoint" />
            <mxPoint x="565" y="140" as="targetPoint" />
          </mxGeometry>
        </mxCell>
        <mxCell id="u0EGI90GSaUVnPFxNuiq-89" value="" style="endArrow=none;html=1;rounded=0;exitX=0;exitY=0;exitDx=0;exitDy=0;" edge="1" parent="1" source="u0EGI90GSaUVnPFxNuiq-28" target="u0EGI90GSaUVnPFxNuiq-25">
          <mxGeometry relative="1" as="geometry">
            <mxPoint x="405" y="140" as="sourcePoint" />
            <mxPoint x="565" y="140" as="targetPoint" />
          </mxGeometry>
        </mxCell>
        <mxCell id="u0EGI90GSaUVnPFxNuiq-90" value="" style="endArrow=none;html=1;rounded=0;entryX=1;entryY=0.5;entryDx=0;entryDy=0;" edge="1" parent="1" source="u0EGI90GSaUVnPFxNuiq-29" target="u0EGI90GSaUVnPFxNuiq-25">
          <mxGeometry relative="1" as="geometry">
            <mxPoint x="405" y="140" as="sourcePoint" />
            <mxPoint x="885" y="190" as="targetPoint" />
          </mxGeometry>
        </mxCell>
        <mxCell id="u0EGI90GSaUVnPFxNuiq-91" value="Avtor" style="whiteSpace=wrap;html=1;align=center;" vertex="1" parent="1">
          <mxGeometry x="1282.99" y="-140" width="100" height="40" as="geometry" />
        </mxCell>
        <mxCell id="u0EGI90GSaUVnPFxNuiq-92" value="Ime" style="ellipse;whiteSpace=wrap;html=1;align=center;" vertex="1" parent="1">
          <mxGeometry x="1301.99" y="-30" width="100" height="40" as="geometry" />
        </mxCell>
        <mxCell id="u0EGI90GSaUVnPFxNuiq-93" value="Priimek" style="ellipse;whiteSpace=wrap;html=1;align=center;" vertex="1" parent="1">
          <mxGeometry x="1411.99" y="-50" width="100" height="40" as="geometry" />
        </mxCell>
        <mxCell id="u0EGI90GSaUVnPFxNuiq-94" value="Id avtorja" style="ellipse;whiteSpace=wrap;html=1;align=center;fontStyle=4;" vertex="1" parent="1">
          <mxGeometry x="1182.99" y="-60" width="100" height="40" as="geometry" />
        </mxCell>
        <mxCell id="u0EGI90GSaUVnPFxNuiq-95" value="ima" style="shape=rhombus;perimeter=rhombusPerimeter;whiteSpace=wrap;html=1;align=center;" vertex="1" parent="1">
          <mxGeometry x="960.24" y="-140" width="118" height="50" as="geometry" />
        </mxCell>
        <mxCell id="u0EGI90GSaUVnPFxNuiq-96" value="" style="endArrow=none;html=1;rounded=0;exitX=1;exitY=1;exitDx=0;exitDy=0;entryX=0;entryY=0.5;entryDx=0;entryDy=0;" edge="1" parent="1" source="u0EGI90GSaUVnPFxNuiq-16" target="u0EGI90GSaUVnPFxNuiq-95">
          <mxGeometry relative="1" as="geometry">
            <mxPoint x="610" y="-90" as="sourcePoint" />
            <mxPoint x="770" y="-90" as="targetPoint" />
          </mxGeometry>
        </mxCell>
        <mxCell id="u0EGI90GSaUVnPFxNuiq-97" value="N" style="resizable=0;html=1;whiteSpace=wrap;align=right;verticalAlign=bottom;" connectable="0" vertex="1" parent="u0EGI90GSaUVnPFxNuiq-96">
          <mxGeometry x="1" relative="1" as="geometry" />
        </mxCell>
        <mxCell id="u0EGI90GSaUVnPFxNuiq-98" value="" style="endArrow=none;html=1;rounded=0;entryX=1;entryY=0.5;entryDx=0;entryDy=0;" edge="1" parent="1" target="u0EGI90GSaUVnPFxNuiq-95">
          <mxGeometry relative="1" as="geometry">
            <mxPoint x="1281.99" y="-120" as="sourcePoint" />
            <mxPoint x="1084.972" y="-102" as="targetPoint" />
          </mxGeometry>
        </mxCell>
        <mxCell id="u0EGI90GSaUVnPFxNuiq-99" value="N" style="resizable=0;html=1;whiteSpace=wrap;align=right;verticalAlign=bottom;" connectable="0" vertex="1" parent="u0EGI90GSaUVnPFxNuiq-98">
          <mxGeometry x="1" relative="1" as="geometry">
            <mxPoint x="12" as="offset" />
          </mxGeometry>
        </mxCell>
        <mxCell id="u0EGI90GSaUVnPFxNuiq-100" value="" style="endArrow=none;html=1;rounded=0;exitX=0;exitY=1;exitDx=0;exitDy=0;entryX=0.74;entryY=0.125;entryDx=0;entryDy=0;entryPerimeter=0;" edge="1" parent="1" source="u0EGI90GSaUVnPFxNuiq-91" target="u0EGI90GSaUVnPFxNuiq-94">
          <mxGeometry relative="1" as="geometry">
            <mxPoint x="701.99" y="-100" as="sourcePoint" />
            <mxPoint x="861.99" y="-100" as="targetPoint" />
          </mxGeometry>
        </mxCell>
        <mxCell id="u0EGI90GSaUVnPFxNuiq-101" value="" style="endArrow=none;html=1;rounded=0;exitX=0.62;exitY=0.95;exitDx=0;exitDy=0;exitPerimeter=0;" edge="1" parent="1" source="u0EGI90GSaUVnPFxNuiq-91" target="u0EGI90GSaUVnPFxNuiq-92">
          <mxGeometry relative="1" as="geometry">
            <mxPoint x="701.99" y="-100" as="sourcePoint" />
            <mxPoint x="861.99" y="-100" as="targetPoint" />
          </mxGeometry>
        </mxCell>
        <mxCell id="u0EGI90GSaUVnPFxNuiq-102" value="" style="endArrow=none;html=1;rounded=0;exitX=1;exitY=1;exitDx=0;exitDy=0;entryX=0.5;entryY=0;entryDx=0;entryDy=0;" edge="1" parent="1" source="u0EGI90GSaUVnPFxNuiq-91" target="u0EGI90GSaUVnPFxNuiq-93">
          <mxGeometry relative="1" as="geometry">
            <mxPoint x="701.99" y="-100" as="sourcePoint" />
            <mxPoint x="861.99" y="-100" as="targetPoint" />
          </mxGeometry>
        </mxCell>
        <mxCell id="u0EGI90GSaUVnPFxNuiq-103" value="žanr" style="whiteSpace=wrap;html=1;align=center;" vertex="1" parent="1">
          <mxGeometry x="1201.99" y="-355.68" width="100" height="40" as="geometry" />
        </mxCell>
        <mxCell id="u0EGI90GSaUVnPFxNuiq-104" value="id žanra" style="ellipse;whiteSpace=wrap;html=1;align=center;fontStyle=4;" vertex="1" parent="1">
          <mxGeometry x="1151.99" y="-280" width="100" height="40" as="geometry" />
        </mxCell>
        <mxCell id="u0EGI90GSaUVnPFxNuiq-105" value="ime žanra" style="ellipse;whiteSpace=wrap;html=1;align=center;" vertex="1" parent="1">
          <mxGeometry x="1282.99" y="-280" width="100" height="40" as="geometry" />
        </mxCell>
        <mxCell id="u0EGI90GSaUVnPFxNuiq-106" value="ima" style="shape=rhombus;perimeter=rhombusPerimeter;whiteSpace=wrap;html=1;align=center;" vertex="1" parent="1">
          <mxGeometry x="971.24" y="-220" width="108" height="60" as="geometry" />
        </mxCell>
        <mxCell id="u0EGI90GSaUVnPFxNuiq-107" value="" style="endArrow=none;html=1;rounded=0;exitX=0;exitY=0.75;exitDx=0;exitDy=0;entryX=0.889;entryY=0.35;entryDx=0;entryDy=0;entryPerimeter=0;" edge="1" parent="1" source="u0EGI90GSaUVnPFxNuiq-103">
          <mxGeometry relative="1" as="geometry">
            <mxPoint x="701.99" y="-100" as="sourcePoint" />
            <mxPoint x="1080.0020000000002" y="-189" as="targetPoint" />
          </mxGeometry>
        </mxCell>
        <mxCell id="u0EGI90GSaUVnPFxNuiq-108" value="N" style="resizable=0;html=1;whiteSpace=wrap;align=right;verticalAlign=bottom;" connectable="0" vertex="1" parent="u0EGI90GSaUVnPFxNuiq-107">
          <mxGeometry x="1" relative="1" as="geometry" />
        </mxCell>
        <mxCell id="u0EGI90GSaUVnPFxNuiq-109" value="" style="endArrow=none;html=1;rounded=0;exitX=1;exitY=0.75;exitDx=0;exitDy=0;entryX=0.074;entryY=0.467;entryDx=0;entryDy=0;entryPerimeter=0;" edge="1" parent="1" source="u0EGI90GSaUVnPFxNuiq-16" target="u0EGI90GSaUVnPFxNuiq-106">
          <mxGeometry relative="1" as="geometry">
            <mxPoint x="610" y="-90" as="sourcePoint" />
            <mxPoint x="770" y="-90" as="targetPoint" />
          </mxGeometry>
        </mxCell>
        <mxCell id="u0EGI90GSaUVnPFxNuiq-110" value="N" style="resizable=0;html=1;whiteSpace=wrap;align=right;verticalAlign=bottom;" connectable="0" vertex="1" parent="u0EGI90GSaUVnPFxNuiq-109">
          <mxGeometry x="1" relative="1" as="geometry" />
        </mxCell>
        <mxCell id="u0EGI90GSaUVnPFxNuiq-111" value="id srečanja" style="ellipse;whiteSpace=wrap;html=1;align=center;fontStyle=4;" vertex="1" parent="1">
          <mxGeometry x="600" y="-604" width="100" height="40" as="geometry" />
        </mxCell>
        <mxCell id="u0EGI90GSaUVnPFxNuiq-112" value="datum" style="ellipse;whiteSpace=wrap;html=1;align=center;" vertex="1" parent="1">
          <mxGeometry x="820" y="-530" width="100" height="40" as="geometry" />
        </mxCell>
        <mxCell id="u0EGI90GSaUVnPFxNuiq-113" value="prostor" style="ellipse;whiteSpace=wrap;html=1;align=center;" vertex="1" parent="1">
          <mxGeometry x="750" y="-584" width="100" height="40" as="geometry" />
        </mxCell>
        <mxCell id="u0EGI90GSaUVnPFxNuiq-115" value="" style="endArrow=none;html=1;rounded=0;entryX=0.25;entryY=1;entryDx=0;entryDy=0;" edge="1" parent="1" source="u0EGI90GSaUVnPFxNuiq-104" target="u0EGI90GSaUVnPFxNuiq-103">
          <mxGeometry relative="1" as="geometry">
            <mxPoint x="560" y="-320" as="sourcePoint" />
            <mxPoint x="720" y="-320" as="targetPoint" />
          </mxGeometry>
        </mxCell>
        <mxCell id="u0EGI90GSaUVnPFxNuiq-116" value="" style="endArrow=none;html=1;rounded=0;exitX=0.75;exitY=1;exitDx=0;exitDy=0;" edge="1" parent="1" source="u0EGI90GSaUVnPFxNuiq-103" target="u0EGI90GSaUVnPFxNuiq-105">
          <mxGeometry relative="1" as="geometry">
            <mxPoint x="560" y="-320" as="sourcePoint" />
            <mxPoint x="720" y="-320" as="targetPoint" />
          </mxGeometry>
        </mxCell>
        <mxCell id="u0EGI90GSaUVnPFxNuiq-117" value="" style="endArrow=none;html=1;rounded=0;exitX=0.67;exitY=1.05;exitDx=0;exitDy=0;exitPerimeter=0;" edge="1" parent="1" source="u0EGI90GSaUVnPFxNuiq-111" target="u0EGI90GSaUVnPFxNuiq-35">
          <mxGeometry relative="1" as="geometry">
            <mxPoint x="610" y="-280" as="sourcePoint" />
            <mxPoint x="770" y="-280" as="targetPoint" />
          </mxGeometry>
        </mxCell>
        <mxCell id="u0EGI90GSaUVnPFxNuiq-118" value="" style="endArrow=none;html=1;rounded=0;exitX=0.05;exitY=0.775;exitDx=0;exitDy=0;exitPerimeter=0;" edge="1" parent="1" source="u0EGI90GSaUVnPFxNuiq-113" target="u0EGI90GSaUVnPFxNuiq-35">
          <mxGeometry relative="1" as="geometry">
            <mxPoint x="610" y="-280" as="sourcePoint" />
            <mxPoint x="770" y="-280" as="targetPoint" />
          </mxGeometry>
        </mxCell>
        <mxCell id="u0EGI90GSaUVnPFxNuiq-119" value="" style="endArrow=none;html=1;rounded=0;exitX=0;exitY=0.7;exitDx=0;exitDy=0;exitPerimeter=0;" edge="1" parent="1" source="u0EGI90GSaUVnPFxNuiq-112" target="u0EGI90GSaUVnPFxNuiq-35">
          <mxGeometry relative="1" as="geometry">
            <mxPoint x="610" y="-280" as="sourcePoint" />
            <mxPoint x="770" y="-280" as="targetPoint" />
          </mxGeometry>
        </mxCell>
        <mxCell id="u0EGI90GSaUVnPFxNuiq-120" value="obravnavana" style="shape=rhombus;perimeter=rhombusPerimeter;whiteSpace=wrap;html=1;align=center;" vertex="1" parent="1">
          <mxGeometry x="624" y="-410" width="106" height="50" as="geometry" />
        </mxCell>
        <mxCell id="u0EGI90GSaUVnPFxNuiq-121" value="" style="endArrow=none;html=1;rounded=0;exitX=0.5;exitY=0;exitDx=0;exitDy=0;entryX=0.5;entryY=1;entryDx=0;entryDy=0;" edge="1" parent="1" source="u0EGI90GSaUVnPFxNuiq-16" target="u0EGI90GSaUVnPFxNuiq-120">
          <mxGeometry relative="1" as="geometry">
            <mxPoint x="610" y="-280" as="sourcePoint" />
            <mxPoint x="770" y="-280" as="targetPoint" />
          </mxGeometry>
        </mxCell>
        <mxCell id="u0EGI90GSaUVnPFxNuiq-122" value="1" style="resizable=0;html=1;whiteSpace=wrap;align=right;verticalAlign=bottom;" connectable="0" vertex="1" parent="u0EGI90GSaUVnPFxNuiq-121">
          <mxGeometry x="1" relative="1" as="geometry" />
        </mxCell>
        <mxCell id="u0EGI90GSaUVnPFxNuiq-123" value="" style="endArrow=none;html=1;rounded=0;exitX=0.38;exitY=1;exitDx=0;exitDy=0;exitPerimeter=0;" edge="1" parent="1" source="u0EGI90GSaUVnPFxNuiq-35" target="u0EGI90GSaUVnPFxNuiq-120">
          <mxGeometry relative="1" as="geometry">
            <mxPoint x="610" y="-280" as="sourcePoint" />
            <mxPoint x="770" y="-280" as="targetPoint" />
          </mxGeometry>
        </mxCell>
        <mxCell id="u0EGI90GSaUVnPFxNuiq-124" value="1" style="resizable=0;html=1;whiteSpace=wrap;align=right;verticalAlign=bottom;" connectable="0" vertex="1" parent="u0EGI90GSaUVnPFxNuiq-123">
          <mxGeometry x="1" relative="1" as="geometry" />
        </mxCell>
        <mxCell id="u0EGI90GSaUVnPFxNuiq-125" value="udeležba" style="shape=rhombus;perimeter=rhombusPerimeter;whiteSpace=wrap;html=1;align=center;" vertex="1" parent="1">
          <mxGeometry x="264" y="-490" width="120" height="60" as="geometry" />
        </mxCell>
        <mxCell id="u0EGI90GSaUVnPFxNuiq-128" value="" style="endArrow=none;html=1;rounded=0;exitX=0;exitY=0.5;exitDx=0;exitDy=0;entryX=1;entryY=0;entryDx=0;entryDy=0;" edge="1" parent="1" source="u0EGI90GSaUVnPFxNuiq-35" target="u0EGI90GSaUVnPFxNuiq-125">
          <mxGeometry relative="1" as="geometry">
            <mxPoint x="610" y="-280" as="sourcePoint" />
            <mxPoint x="770" y="-280" as="targetPoint" />
          </mxGeometry>
        </mxCell>
        <mxCell id="u0EGI90GSaUVnPFxNuiq-129" value="N" style="resizable=0;html=1;whiteSpace=wrap;align=right;verticalAlign=bottom;" connectable="0" vertex="1" parent="u0EGI90GSaUVnPFxNuiq-128">
          <mxGeometry x="1" relative="1" as="geometry" />
        </mxCell>
        <mxCell id="u0EGI90GSaUVnPFxNuiq-130" value="" style="endArrow=none;html=1;rounded=0;dashed=1;dashPattern=1 2;entryX=0.3;entryY=0.883;entryDx=0;entryDy=0;entryPerimeter=0;" edge="1" parent="1" source="u0EGI90GSaUVnPFxNuiq-7" target="u0EGI90GSaUVnPFxNuiq-125">
          <mxGeometry relative="1" as="geometry">
            <mxPoint x="610" y="-280" as="sourcePoint" />
            <mxPoint x="770" y="-280" as="targetPoint" />
          </mxGeometry>
        </mxCell>
        <mxCell id="u0EGI90GSaUVnPFxNuiq-131" value="1" style="resizable=0;html=1;whiteSpace=wrap;align=right;verticalAlign=bottom;" connectable="0" vertex="1" parent="u0EGI90GSaUVnPFxNuiq-130">
          <mxGeometry x="1" relative="1" as="geometry">
            <mxPoint y="11" as="offset" />
          </mxGeometry>
        </mxCell>
        <mxCell id="u0EGI90GSaUVnPFxNuiq-132" value="naziv in opis" style="ellipse;whiteSpace=wrap;html=1;align=center;" vertex="1" parent="1">
          <mxGeometry x="810" y="-450" width="100" height="40" as="geometry" />
        </mxCell>
        <mxCell id="u0EGI90GSaUVnPFxNuiq-133" value="" style="endArrow=none;html=1;rounded=0;exitX=1;exitY=1;exitDx=0;exitDy=0;entryX=0;entryY=0.5;entryDx=0;entryDy=0;" edge="1" parent="1" source="u0EGI90GSaUVnPFxNuiq-35" target="u0EGI90GSaUVnPFxNuiq-132">
          <mxGeometry relative="1" as="geometry">
            <mxPoint x="610" y="-280" as="sourcePoint" />
            <mxPoint x="770" y="-280" as="targetPoint" />
          </mxGeometry>
        </mxCell>
      </root>
    </mxGraphModel>
  </diagram>
</mxfile>
